<?xml version="1.0" encoding="utf-8"?>
<!-- Generator: Adobe Illustrator 23.1.0, SVG Export Plug-In . SVG Version: 6.00 Build 0)  -->
<svg version="1.1" id="Livello_1" xmlns="http://www.w3.org/2000/svg" xmlns:xlink="http://www.w3.org/1999/xlink" x="0px" y="0px"
	 viewBox="0 0 432.3 46.9" style="enable-background:new 0 0 432.3 46.9;" xml:space="preserve">
<style type="text/css">
	.st0{fill:#851DFA;}
</style>
<g>
	<path class="st0" d="M11.6,23.1c-1.6,0.7-3,1.9-4,3.3c-1,1.5-1.5,3.2-1.5,5c-0.1,3.6,2.1,7,5.5,8.4c0.6,0.3,1.2,0.5,1.8,0.6
		c0.7,0.1,1.3,0.2,2,0.2c2.3,0,4.5-0.9,6.2-2.4c0.6-0.4,1.2-0.6,1.9-0.7c0.9,0,1.7,0.4,2.3,1c0.6,0.6,0.9,1.4,0.8,2.3
		c-0.1,0.8-0.4,1.6-1.1,2.1c-0.7,0.6-1.5,1.2-2.3,1.6c-0.8,0.5-1.6,0.9-2.5,1.2c-0.9,0.3-1.8,0.5-2.7,0.7c-0.9,0.2-1.8,0.2-2.7,0.2
		c-1.1,0-2.1-0.1-3.1-0.4c-1.1-0.3-2.1-0.6-3.2-1c-2.8-1.2-5.1-3.2-6.7-5.7c-3.1-5.1-3.1-11.6,0-16.7c1.6-2.5,3.9-4.4,6.6-5.6
		c2-0.9,4.1-1.4,6.3-1.4c1.8,0,3.7,0.3,5.4,0.9c1.7,0.7,3.3,1.7,4.7,2.9c0.3,0.3,0.5,0.6,0.7,0.9c0.2,0.4,0.4,0.8,0.4,1.2
		c0,0.9-0.3,1.7-0.9,2.3c-0.6,0.6-1.4,1-2.3,1c-0.8,0-1.6-0.3-2.1-0.9c-0.8-0.7-1.8-1.3-2.8-1.6c-1-0.4-2.1-0.6-3.2-0.6
		C14,22.2,12.7,22.5,11.6,23.1z"/>
	<path class="st0" d="M35,46.8c-0.8,0-1.7-0.3-2.2-0.9c-0.6-0.6-0.9-1.3-0.9-2.2V28.4c0-1.6,0.3-3.3,1-4.8c1.3-3,3.7-5.3,6.6-6.6
		c1.5-0.7,3.1-1,4.8-1h3.1c0.8,0,1.6,0.3,2.2,0.9c1.2,1.2,1.2,3.2,0,4.4c-0.6,0.6-1.4,0.9-2.2,0.9h-3.1c-0.8,0-1.6,0.2-2.4,0.5
		c-0.7,0.3-1.3,0.8-1.9,1.4c-0.6,0.6-1,1.3-1.3,2c-0.3,0.7-0.5,1.5-0.5,2.4v15.3c0,0.8-0.3,1.6-0.9,2.2C36.6,46.6,35.8,46.9,35,46.8
		z"/>
	<path class="st0" d="M84.1,25.5C84.1,25.6,84.1,25.6,84.1,25.5c0,0.1,0,0.2,0,0.2c0,0.2,0,0.3,0,0.5c0,0.1,0,0.2-0.1,0.3
		c0,0.1,0,0.1,0,0.2c-0.1,0.1-0.2,0.3-0.2,0.4l-0.1,0.1c-0.1,0.3-0.3,0.6-0.7,0.8c0,0.2-0.1,0.3-0.3,0.4l-0.7,0.3l-19.8,7.5
		c0.4,0.7,0.8,1.3,1.4,1.8c0.5,0.4,1,0.8,1.6,1.2c0.5,0.3,0.9,0.5,1.4,0.7c0.3,0.1,0.7,0.3,1,0.3c0.4,0.1,0.8,0.2,1.2,0.3
		c0.4,0,0.9,0.1,1.4,0.1c0.6,0,1.1-0.1,1.7-0.2c0.7-0.1,1.4-0.3,2-0.6c0.8-0.3,1.5-0.8,2.1-1.4c0.8-0.7,1.5-1.5,2-2.4L78,36.1
		c0.5-1,1.6-1.7,2.8-1.6c0.5,0,1.1,0.1,1.5,0.4c0.7,0.4,1.3,1.1,1.5,1.9c0.2,0.8,0,1.6-0.4,2.3c-1.3,2.3-3.3,4.3-5.6,5.7
		c-2.3,1.3-4.8,2-7.4,2c-1.5,0-3-0.2-4.4-0.6c-1.7-0.5-3.2-1.2-4.7-2.2c-1.4-0.9-2.6-2.1-3.6-3.4c-2-2.8-3.1-6.1-3-9.5
		c0-1.7,0.3-3.5,0.9-5.1c0.6-1.6,1.4-3,2.4-4.3c2.2-2.6,5.2-4.5,8.5-5.2c0.7-0.1,1.4-0.2,2-0.3c0.6-0.1,1.2-0.1,1.8-0.1
		c2.8,0,5.5,0.7,7.9,2.3c2.4,1.6,4.3,3.7,5.7,6.2v0.1c0.1,0.2,0.2,0.5,0.1,0.7L84.1,25.5z M63.8,24.8c-1.5,1.4-2.4,3.2-2.6,5.2
		L76,24.3c-0.8-0.9-1.9-1.6-3.1-1.8c-0.9-0.1-1.8-0.2-2.7-0.2c-0.7,0-1.5,0.1-2.2,0.3C66.5,22.9,65,23.7,63.8,24.8z"/>
	<path class="st0" d="M111.7,45c-1.1,0.6-2.3,1-3.4,1.3c-1.2,0.3-2.5,0.5-3.7,0.5c-2.1,0-4.1-0.4-6-1.2c-1.8-0.8-3.5-1.9-4.9-3.3
		c-2.9-2.9-4.5-6.8-4.5-10.9c0-2.1,0.4-4.1,1.2-6c0.8-1.8,1.9-3.5,3.3-4.9c1.4-1.4,3.1-2.5,4.9-3.3c3.8-1.6,8.2-1.6,12,0
		c1.8,0.8,3.5,1.9,4.9,3.3c1.4,1.4,2.5,3.1,3.3,4.9c0.8,1.9,1.2,3.9,1.2,6v12.3c0,0.8-0.3,1.6-0.9,2.2c-0.6,0.6-1.4,0.9-2.2,0.9
		c-0.8,0-1.6-0.3-2.2-0.9c-0.6-0.6-0.9-1.3-0.9-2.1C113.1,44.3,112.5,44.7,111.7,45L111.7,45z M95.4,31.4c0,1.2,0.2,2.5,0.7,3.6
		c0.5,1.1,1.2,2.1,2,2.9c0.8,0.9,1.8,1.5,2.9,2c2.3,0.9,4.9,0.9,7.2,0c1.1-0.5,2.1-1.1,2.9-2c1.7-1.7,2.7-4.1,2.7-6.5
		c0-1.2-0.2-2.4-0.7-3.6c-0.5-1.1-1.1-2.1-2-2.9c-0.8-0.8-1.8-1.5-2.9-2c-2.3-1-4.9-1-7.2,0c-2.2,1-3.9,2.7-4.8,4.9
		C95.7,29,95.4,30.2,95.4,31.4z"/>
	<path class="st0" d="M131.4,22.2v9.2c0,1.1,0.2,2.3,0.5,3.4c0.3,1.1,0.7,2.1,1.2,3c0.4,0.8,1,1.4,1.6,2c0.8,0.6,1.7,0.9,2.7,0.9
		c1.7-0.1,3.2,1.2,3.3,2.9s-1.2,3.2-2.9,3.3c-0.1,0-0.2,0-0.4,0c-2,0-3.9-0.6-5.6-1.7c-1.6-1-3-2.3-3.9-3.9
		c-0.9-1.5-1.6-3.1-2.1-4.8c-0.5-1.7-0.7-3.4-0.7-5.1V3.8c0-0.8,0.3-1.6,0.9-2.2c0.6-0.6,1.4-0.9,2.2-0.9c1.7-0.1,3,1.3,3.1,2.9
		c0,0.1,0,0.1,0,0.2v12.3h6.1c0.8,0,1.6,0.3,2.2,0.9c0.6,0.6,0.9,1.4,0.9,2.2c0,0.8-0.3,1.6-0.9,2.2c-0.6,0.6-1.4,0.9-2.2,0.9H131.4
		z"/>
	<path class="st0" d="M160.8,46.8c-2.1,0-4.1-0.4-6-1.2c-3.7-1.6-6.6-4.5-8.2-8.2c-1.6-3.8-1.6-8.2,0-12c1.6-3.7,4.5-6.6,8.2-8.2
		c3.8-1.6,8.2-1.6,12,0c1.8,0.8,3.5,1.9,4.9,3.3c1.4,1.4,2.5,3.1,3.3,4.9c1.7,3.8,1.7,8.2,0,12c-0.8,1.8-1.9,3.5-3.3,4.9
		c-1.4,1.4-3.1,2.5-4.9,3.3C164.9,46.4,162.8,46.8,160.8,46.8z M160.8,22.3c-1.2,0-2.4,0.2-3.6,0.7c-1.1,0.5-2.1,1.2-2.9,2
		c-0.9,0.8-1.5,1.8-2,2.9c-1,2.3-1,4.9,0,7.1c0.5,1.1,1.2,2.1,2,2.9c0.8,0.9,1.8,1.5,2.9,2c3.4,1.4,7.4,0.7,10.1-2
		c0.8-0.8,1.5-1.8,1.9-2.9c0.9-2.3,0.9-4.8,0-7.1c-0.4-1.1-1.1-2.1-1.9-2.9c-0.8-0.8-1.8-1.5-2.9-2C163.2,22.6,162,22.3,160.8,22.3
		L160.8,22.3z"/>
	<path class="st0" d="M184,46.8c-0.8,0-1.7-0.3-2.2-0.9c-0.6-0.6-0.9-1.3-0.9-2.2V28.4c0-1.6,0.3-3.3,1-4.8c0.6-1.5,1.5-2.8,2.6-4
		c1.1-1.1,2.5-2,3.9-2.7c1.5-0.7,3.1-1,4.8-1h3.1c0.8,0,1.6,0.3,2.2,0.9c1.2,1.2,1.2,3.2,0,4.4c-0.6,0.6-1.4,0.9-2.2,0.9h-3.1
		c-0.8,0-1.6,0.2-2.4,0.5c-0.7,0.3-1.4,0.8-1.9,1.4c-0.6,0.6-1,1.3-1.3,2c-0.3,0.7-0.5,1.5-0.5,2.4v15.3c0,0.8-0.3,1.6-0.9,2.2
		C185.6,46.5,184.8,46.8,184,46.8z"/>
	<path class="st0" d="M219.8,21.4h-6.4V15c0-1.7-1.4-3.1-3.1-3.1c-1.7,0-3.1,1.4-3.1,3.1v6.4H201c-1.3-0.1-2.5,0.9-2.6,2.3
		s0.9,2.5,2.3,2.6c0.1,0,0.2,0,0.3,0h6.4v6.4c0,1.7,1.4,3.1,3.1,3.1c1.7,0,3.1-1.4,3.1-3.1v-6.4h6.4c1.3-0.1,2.3-1.2,2.3-2.6
		C222,22.4,221.1,21.4,219.8,21.4L219.8,21.4z"/>
	<path class="st0" d="M243.7,24l-0.2,0.2v0.2c0,0.1-0.1,0.1-0.2,0.1l-0.1-0.2c-0.2,0.2-0.4,0.3-0.6,0.4l-0.2-0.2
		c-0.1,0-0.2,0-0.2-0.1c-0.1,0.1-0.1,0.1-0.2,0.1c0,0-0.1-0.1-0.1-0.2l-0.1,0.2l-0.1-0.2l-0.2-0.1c0,0.2-0.1,0.2-0.2,0.2l-0.1-0.2
		c-0.1,0-0.1,0.1-0.2,0.2c-0.2,0-0.2,0-0.2,0.1c0,0.1,0.1,0.2,0.2,0.2l-0.2,0.3l-0.2-0.1l-0.2,0.1H240c-0.1,0-0.1,0-0.1-0.1
		c0,0,0,0,0,0l-0.1-0.2h0.4c0.1,0,0.2-0.1,0.2-0.2c0.1-0.2-0.1,0.1-0.2,0.1c-0.1,0-0.2,0-0.4-0.1c-0.2-0.1-0.4-0.1-0.5-0.1H239
		c-0.2,0-0.4,0-0.5-0.1h-0.3l-0.2,0.2l0.3,0.1l-0.2,0.3c0,0-0.1,0-0.2-0.1l-0.2,0.1c0,0.1-0.1,0.1-0.2,0.1c-0.1-0.1-0.1-0.2-0.2-0.2
		c0,0.1,0,0.1-0.1,0.1c0,0,0,0,0,0c-0.1,0-0.2,0.1-0.3,0.1h-0.1l-0.1-0.1c-0.1,0-0.1,0-0.1,0.1c0,0,0,0,0,0c0,0.1,0.1,0.2,0.2,0.3
		l0.1,0.1v0.1c0,0.1,0,0.2-0.1,0.2c-0.1,0-0.3,0-0.4-0.1c-0.3,0-0.4,0.1-0.4,0.2c0,0-0.1,0-0.1,0c0,0,0,0,0,0l-0.1-0.1
		c-0.2,0-0.2,0.1-0.2,0.2c-0.2,0-0.3,0-0.5-0.1l0.2,0.2l-1.4,0.1l-0.5,1.9c-2.3,8.1-3.4,13.4-3.5,15.9l-0.1,0.7
		c-0.1,0-0.3-0.1-0.4-0.1h-0.8h-0.8c-0.7,0.1-1.4-0.2-1.8-0.8c-0.4-0.7-0.6-1.6-0.6-2.4c0-0.2,0-0.4,0-0.7s0-0.6,0.1-0.9
		c0-0.3,0.1-0.5,0.1-0.8c0.2-1.1,0.8-3.4,1.7-6.9c0.9-3.5,1.4-5.4,1.4-5.7l-0.3-0.4c-0.3-0.2-0.5-0.5-0.7-0.8c0-0.2,0-0.4,0-0.6
		c0-0.2,0-0.4,0-0.5c0-0.2,0-0.3,0.1-0.5c0-0.1,0-0.2,0-0.2c0-0.1,0-0.2,0.1-0.3c0.3-0.4,0.8-0.5,1.3-0.5h0.2c0.2,0,0.3-0.1,0.3-0.2
		c0.9-2.3,2.1-7,3.5-14l-0.8,0.1l-0.8,0.1l-0.1-0.1l-0.3-0.1c-0.6,0-1.2-0.2-1.6-0.5l-0.3-0.3c0,0,0-0.1,0-0.1c0,0,0,0,0,0
		c0,0-0.1,0-0.2-0.1l-0.4-0.9c0-0.3,0-0.5-0.1-0.8c0.2-0.8,1-1.2,2.5-1.2c1.9,0,4.3-0.1,7.1-0.3s4.9-0.3,6.2-0.3
		c5.7,0,9.1,0.9,10,2.6c1.4,2.6-0.2,0.1-0.5,0.1c-0.1,0-0.1,0-0.2,0.1c0,0-0.1,0.1-0.1,0.1c0,0-0.1,0-0.2,0.1l0.1,0.2l-0.2-0.1
		C253.1,7,253.1,7,253,6.9c0,0.1-0.1,0.3-0.1,0.4c0,0.1,0,0.2-0.1,0.2c0,0,0,0,0,0l-0.5-0.1c0,0.2,0,0.3-0.1,0.3
		c-0.1,0.1-0.3,0.1-0.4,0.1c-0.1,0-0.2,0-0.2-0.1c-0.2-0.1-0.2-0.2-0.2-0.2c0,0.1-0.2,0.2-0.3,0.2c-0.1-0.1-0.3-0.2-0.5-0.2
		c0,0-0.1-0.1-0.2-0.1L250,7.4l-0.1,0.2c0-0.1,0-0.1-0.1-0.1c0,0,0,0,0,0c-0.2,0-0.2,0.1-0.2,0.2c0-0.1-0.2-0.1-0.5-0.2h-0.7
		c-0.1,0-0.1,0-0.2-0.1l-0.1-0.1h-0.1c-0.1,0-0.1,0-0.2,0l-2,0.1c-2.6,0.1-5.3,0.3-7.9,0.7c0.1,0.1,0.1,0.2,0.1,0.4
		c-0.3,2.2-0.7,4.5-1.2,6.6c-0.8,3.4-1.4,5.8-1.8,7.2c3.9-0.2,6.2-0.3,6.8-0.3h1.4c1.4,0,2.7,0.3,4,0.6c0.4,0.1,0.7,0.3,0.8,0.7
		h-0.3c-0.2,0-0.3,0-0.3,0.1l0.1,0.2c-0.1,0.1-0.3,0.2-0.4,0.2c0,0-0.1,0-0.1-0.1c-0.1-0.1-0.1-0.1-0.2-0.2c0-0.1-0.1-0.1-0.2-0.2
		c-0.1,0-0.2,0-0.2-0.1c-0.2,0-0.3,0-0.3-0.1c-0.1,0-0.2,0-0.3,0.1c0.1,0.1,0.2,0.2,0.2,0.4l0.1,0.1c0,0.1,0,0.1-0.1,0.1
		c0,0,0,0,0,0h-0.5c-0.1,0-0.2,0-0.2,0.1S245.1,24,245,24h-0.5v0.5h-0.2C244,24.5,243.9,24.3,243.7,24z M234.7,24.7v-0.2h-0.4
		C234.3,24.6,234.5,24.7,234.7,24.7C234.7,24.7,234.7,24.7,234.7,24.7L234.7,24.7z M234.8,25.3h0.2V25C235,25,234.9,25.1,234.8,25.3
		L234.8,25.3z M235.3,25.5l0.3-0.2l-0.4-0.1L235.3,25.5z M236.1,25.3c0.2,0,0.3,0,0.3-0.1s-0.1-0.1-0.4-0.2c-0.1,0-0.1,0-0.2,0.1
		C235.9,25.2,236,25.3,236.1,25.3L236.1,25.3z M237,24.4l-0.4-0.1l0.2,0.5h0.3l0.1-0.1C237.3,24.5,237.2,24.4,237,24.4L237,24.4z
		 M236.8,25.3l0.1-0.1c0.1,0,0.2-0.1,0.3-0.1c0.1,0.1,0.3,0.1,0.4,0.1l0.2,0.2l-0.2,0.2c-0.1,0-0.1-0.1-0.1-0.2
		c0-0.2-0.1,0.1-0.2,0.1H237C237,25.4,236.9,25.3,236.8,25.3L236.8,25.3z M237,24l0.1,0.2c0.1,0,0.2,0,0.2-0.1L237,24z M238,23.9
		l-0.3-0.2l-0.1,0.2h-0.2l0.1,0.4l0.4-0.1L238,23.9z M243.1,7l0.2,0.2c0.1,0.1,0.1,0.1,0.2,0.1c0.1,0,0.2,0,0.3-0.1
		C244,7.1,244,7.1,244,7h-0.5c-0.1,0-0.2,0-0.2-0.1c-0.1-0.1-0.1-0.2-0.2-0.2l-0.5,0.1h-0.1c-0.1,0-0.1,0-0.2,0h-0.6
		c-0.1,0-0.1,0,0,0.1c-0.1,0-0.3-0.1-0.4-0.1c-0.1,0-0.1,0-0.2-0.1l-0.1-0.1c-0.2,0.1-0.5,0.2-0.7,0.3c-0.1,0-0.2,0-0.2,0.1h-0.3
		c-0.2,0-0.2,0-0.2-0.1c-0.1,0-0.2,0.1-0.3,0.2C239.1,7.1,239,7,239,7l-0.1,0.2c-0.1,0.1-0.1,0.1-0.2,0.1c-0.2,0-0.3-0.1-0.5-0.1
		c-0.1,0-0.2,0-0.2,0.1s0,0.1,0.1,0.2c0.2,0,0.4-0.1,0.5-0.2l0.7-0.1c0.2-0.1,0.4-0.1,0.7-0.1c0.3,0,0.4,0,0.5-0.1l0.4-0.1l0.7-0.1
		c0.2,0,0.4,0,0.4,0.1C242,7,242.1,7,242.3,7c0.1,0,0.1,0,0.1,0.1c0.1,0.1,0.1,0.1,0.2,0.1c0,0,0-0.1,0.1-0.2s0.1-0.1,0.2-0.1
		c0,0.2,0.1,0.2,0.1,0.2L243.1,7z M238.5,24.2l-0.3-0.2l0.1,0.2H238.5z M239.2,24.1l0.1,0.2c0.1-0.1,0.2-0.1,0.2-0.2
		C239.3,24.1,239.3,24.1,239.2,24.1L239.2,24.1z M249.2,6.9l0.5,0.1c0-0.1,0-0.2-0.1-0.2c-0.1,0-0.2,0-0.3-0.1l-0.3-0.1h-0.2l-0.2,0
		l-0.3-0.1c-0.1,0-0.2,0-0.2,0.1l-0.1,0.1h-0.1h-0.1c0,0-0.1,0-0.1,0.1l-0.1,0.1l-0.2-0.1c-0.1-0.1-0.2-0.1-0.2-0.1h-1.6l-0.2,0.1
		l-0.1,0.1h-0.2l-0.3-0.1L244.3,7c0,0.1,0.1,0.3,0.2,0.3c0,0,0,0,0.1,0l-0.1-0.2c0.1-0.1,0.1-0.1,0.2-0.1h3l0.3-0.1
		c0.1,0.1,0.3,0.1,0.4,0.1L249.2,6.9z M244.7,23.5c0,0,0.1,0,0.1-0.2s0.1-0.2,0.2-0.2c0-0.1,0-0.2-0.1-0.2c0,0,0,0,0,0
		c-0.1,0-0.3,0.1-0.4,0.1C244.5,23.3,244.6,23.4,244.7,23.5L244.7,23.5z M250.3,6.3l-0.2-0.2v0.3C250.2,6.4,250.2,6.4,250.3,6.3
		L250.3,6.3z M250.6,6.4c-0.1,0.1-0.1,0.3-0.1,0.4c0,0,0.1-0.1,0.2-0.1c0.1,0,0.2,0,0.2,0.1c0,0,0,0,0,0c0.1-0.1,0.2-0.2,0.2-0.3
		l-0.2-0.2C250.7,6.4,250.6,6.4,250.6,6.4L250.6,6.4z M251.6,7.4l0.2-0.2c0-0.1-0.1-0.2-0.2-0.2c-0.1,0-0.1,0.1-0.1,0.2
		S251.5,7.4,251.6,7.4L251.6,7.4z"/>
	<path class="st0" d="M262.7,24.3c-1.9,0.4-3.1,0.6-3.7,0.6c0.1,0.5,0.1,1,0.1,1.4c-0.1,2.7-1,5.2-2.4,7.5c-1.6,2.8-3.4,4.6-5.5,5.3
		c-0.3,0.1-0.6,0.2-0.8,0.2h-0.7c-0.8,0-1.5-0.2-2.2-0.5c-1.1-0.1-1.7-1.3-1.7-3.4c0-1.5,0.2-3,0.6-4.5c0,0,0-0.1,0-0.2s0-0.1,0-0.2
		l0.1-0.4l0.2-0.4c0.8-2.7,2.2-5.2,3.9-7.5c1.6-2,3.3-3.1,5.2-3.2h0.7c0.7,0,1.1,0.1,1.2,0.4l0.5,0.1c0,0.2-0.1,0.4-0.3,0.5
		c-0.6,0.3-1.1,0.7-1.6,1.1c0.7,0.3,1.4,0.8,1.9,1.5c1.6,0,4.6-0.4,9-1c6.6-0.9,0,0.2-0.2,0.5c-0.2,0.3-0.4,0.6-0.6,0.9l-0.4,0.5
		c-1,0.3-1.9,0.5-2.9,0.7h-0.2L262.7,24.3z M255.8,25.3V25h-0.5c-0.5,0-0.9-0.1-1.3-0.4l-0.9,2.1c-1.8,4.5-2.9,7.8-3.1,9.8
		c-0.4,3.1,0.1-0.1,0.3-0.1c0,0,0.1,0,0.1,0c0,0,0,0,0,0l0.1-0.1c1.5-1.4,2.7-3.1,3.5-5C255,29.5,255.6,27.4,255.8,25.3L255.8,25.3z
		 M255.7,33.3c0.1-0.1,0.1-0.3,0.1-0.4c-0.2,0.1-0.2,0.1-0.2,0.2l0.1,0.1C255.7,33.1,255.7,33.2,255.7,33.3L255.7,33.3z M257,31.5
		c0,0-0.1,0.1-0.2,0.2l-0.2,0.4c0,0,0,0.1-0.1,0.2c0,0-0.1,0.1-0.1,0.2c0,0.2-0.1,0.4-0.3,0.5l0.3-0.1c0.1-0.1,0.1-0.3,0.2-0.4
		c0.2-0.2,0.3-0.4,0.3-0.7C257,31.6,257,31.5,257,31.5z M256.7,30.9l-0.1,0.4c0,0.1,0.1,0.1,0.1,0.2c-0.2,0.2-0.3,0.5-0.4,0.8
		c0.1,0,0.2,0,0.2-0.1c0,0,0,0,0,0c0.1-0.1,0.1-0.1,0.1-0.2s0.1-0.1,0.1-0.2L256.7,30.9z M257.9,29.5c0-0.1,0.1-0.2,0.1-0.3
		c-0.1,0-0.1,0-0.1-0.1c0,0,0,0,0,0c0-0.2,0.1-0.4,0.3-0.5c-0.3,0.1-0.4,0.3-0.4,0.6l-0.1,0.2c0,0.1-0.1,0.2-0.1,0.4
		c-0.2,0.1-0.4,0.4-0.4,0.8l0.3-0.1v-0.1c0-0.1,0.1-0.1,0.1-0.2c0-0.1,0-0.2,0.1-0.3C257.8,29.8,257.8,29.6,257.9,29.5L257.9,29.5z
		 M258.2,27.7l-0.2-0.2c0,0.1,0,0.2,0,0.4c0,0.1,0,0.3,0,0.4C258.1,28.1,258.2,27.9,258.2,27.7L258.2,27.7z M258.2,28.7l-0.2,0.1
		v0.1c0,0,0.1,0.1,0.1,0.1L258.2,28.7z M258.7,26.5l-0.1,0.2v0.7c0.1-0.2,0.2-0.4,0.2-0.6c0,0,0-0.1,0-0.2
		C258.7,26.6,258.7,26.5,258.7,26.5L258.7,26.5z"/>
	<path class="st0" d="M262.3,40.7c-0.3,0-0.5,0-0.8-0.1c-0.4-0.1-0.6-0.1-0.7-0.1c-0.2,0-0.3-0.1-0.3-0.2c-0.1,0-0.1,0-0.1-0.1
		c0,0,0,0,0,0c0-0.1,0-0.2,0-0.2c0-0.1,0-0.2,0-0.3c0-0.1,0-0.2,0.1-0.2c0-0.2,0-0.4,0.1-0.7v-1.1c0-0.1,0.1-0.3,0.2-0.3l0.1-0.8
		c0.4-2,1.1-4.6,2-7.7c0.9-3.2,1.5-5.4,1.8-6.8c0.2-0.8,0.2-1.2,0.2-1.3c0-0.1,0.1-0.2,0.1-0.3l0.2-0.2c0.2-0.3,0.5-0.4,0.8-0.4
		c0.1,0,0.2,0.1,0.4,0.1c0.2,0.1,0.5,0.2,0.7,0.2c0.2,0.1,0.4,0.1,0.7,0.1c0.4-0.1,0.8,0.2,0.9,0.7c0.3,0.3,0.4,0.8,0.4,1.2V23
		c0,0.3-0.1,0.9-0.2,1.9c0.9-1.2,2-2.2,3.3-2.9c1-0.8,2.2-1.2,3.4-1.4c0.5,0,0.9,0.2,1.1,0.7c0,0,0,0.1,0,0.1s0,0.1,0,0.1
		c0,0.1-0.1,0.1-0.2,0.1c-0.7,0.3-1.4,0.6-2.1,1c-0.2,0-0.4,0.1-0.4,0.2l-0.5,0.4c-0.3,0-0.4,0.1-0.4,0.4l-1.4,1.5l-0.3,0.3
		c-0.1,0.1-0.2,0.2-0.2,0.2c-0.1,0.2-0.3,0.3-0.4,0.5c-0.2,0.2-0.3,0.3-0.4,0.4s-0.1,0.1-0.2,0.1c0,0.1-0.1,0.2-0.1,0.2
		c-0.1,0.1-0.1,0.2-0.1,0.3c-0.2,0.1-0.3,0.3-0.3,0.5l-0.2,0.2c0,0.1,0,0.2-0.1,0.2l-0.2,0.1c0,0.1,0,0.1-0.1,0.2s-0.1,0.1-0.1,0.2
		c0,0,0,0.1-0.1,0.1l-0.2,0.1c0,0.1,0,0.1,0,0.2s0,0.1,0,0.2c-0.2,0.1-0.3,0.4-0.3,0.7c-0.4,0.6-0.7,0.9-0.8,1.1l-0.1-0.1
		c0,0.1,0,0.2,0.1,0.2c0,0.1,0,0.2-0.1,0.2c0,0,0,0,0,0v0.2l-0.1,0.1v0.2c0,0.1,0,0.1-0.1,0.2c0,0-0.1,0.1-0.1,0.2
		c0,0.1-0.2,0.1-0.3,0.3c0-0.2,0-0.2,0.1-0.2l0.1-0.2l-0.1-0.2l-0.1-0.1l0.1-0.2v-0.2l0.1-0.1c0.1-0.1,0.1-0.2,0.1-0.3
		c0,0-0.1,0-0.2,0.2s-0.2,0.2-0.2,0.3l-0.1,0.2c-0.1,0.2-0.1,0.3-0.1,0.5c-0.1,0-0.1,0.1-0.1,0.3c0,0.1,0,0.2-0.1,0.3l-0.1,0.4
		c0,0.1-0.1,0.1-0.1,0.2l0.1-0.1l0.1-0.3c0-0.1,0.1-0.2,0.2-0.2c0.1-0.3,0.1-0.5,0.2-0.5c0-0.2,0-0.3,0.1-0.3c0,0.3-0.1,0.5-0.1,0.8
		l0.2-0.2c0,0.2-0.2,0.3-0.3,0.4V33c0,0.1,0,0.2-0.1,0.2c0,0,0,0,0,0c0,0.3-0.1,0.4-0.2,0.4l-0.1-0.2c-0.2,0.1-0.3,0.1-0.3,0.2
		c0,0.1,0,0.2-0.1,0.2s-0.1,0.2-0.1,0.2l-0.1,0.4c0.1-0.2,0.2-0.4,0.2-0.7c0.1,0,0.2,0,0.2,0.1c0,0.1-0.1,0.3-0.2,0.4l-0.1,0.1v0.1
		c0,0.1,0,0.1,0.1,0.1c0,0,0,0,0,0l-0.1,0.1l-0.4,0.7c0,0.2,0,0.3-0.1,0.5v0.4c-0.1,0.2-0.2,0.4-0.2,0.5c0,0.6-0.1,0.9-0.2,0.9
		l-0.1,0.6c0,0.1,0,0.2-0.1,0.3l-0.1,0.5v0.2c0-0.2,0.1-0.3,0.2-0.5c0.2,0,0.2-0.3,0.2-0.8c0.1-0.2,0.1-0.5,0.2-0.7l0.2-0.7
		c0-0.1,0-0.2,0.1-0.3c0-0.1,0.1-0.1,0.1-0.2c0-0.1,0-0.2,0.1-0.2c0-0.1,0.1-0.1,0.1-0.2l0.2-0.5c0-0.1,0-0.3,0.1-0.4
		c0-0.1,0.1-0.2,0.2-0.4l-0.1,0.4c0,0.1-0.1,0.2-0.1,0.4l-0.1,0.2c-0.1,0.1-0.1,0.2-0.1,0.3l-0.1,0.1v0.1c0,0,0.1,0.1,0.1,0.2
		c0,0,0,0.1-0.1,0.1v0.1l-0.2-0.1c0,0.1-0.1,0.2-0.2,0.3c0.1,0.1,0.1,0.2,0.1,0.3l0.1-0.1c0.1-0.1,0.1-0.2,0.2-0.2s0.1-0.2,0.2-0.2
		c0,0.2-0.1,0.4-0.2,0.5l-0.1,0.3c-0.1,0.1-0.2,0.2-0.2,0.2c0,0.1,0,0.2-0.1,0.2c0,0.1,0,0.1-0.1,0.2s-0.1,0.1-0.1,0.2
		c0,0.2-0.1,0.3-0.2,0.4v0.5c0.1,0,0.1-0.1,0.1-0.2c0,0-0.1-0.1-0.1-0.2v-0.2l0.1-0.1c0.1,0,0.1,0,0.2-0.1v0.2
		c0,0.1,0.1,0.1,0.1,0.2l-0.1,0.2c0,0.1,0,0.2,0.1,0.2c0,0,0,0,0,0c0-0.2,0.1-0.4,0.2-0.4c0,0.1,0,0.2-0.1,0.3
		c0,0.1-0.1,0.1-0.1,0.2l-0.1,0.5c-0.2,0.1-0.2,0.3-0.2,0.5c0,0.1,0,0.1-0.1,0.2c-0.1,0.1-0.1,0.2-0.1,0.2l-0.1-0.2l-0.2,0.2v-0.5
		l-0.1,0.1c0,0-0.1,0.1-0.1,0.1c0-0.1,0-0.2,0.1-0.3c0-0.1,0-0.1,0.1-0.1c0,0,0,0,0,0c0-0.1,0.1-0.2,0.1-0.4l0.2-0.1
		c0-0.1-0.2,0.1-0.6,0.6c0,0.2-0.1,0.3-0.2,0.4c0,0.2,0,0.4-0.2,0.5l-0.4,0.4c-0.1,0.1-0.2,0.2-0.3,0.2h-0.4c0-0.1-0.1-0.1-0.2-0.2
		c-0.1,0-0.1-0.1-0.2-0.1C262.6,40.8,262.4,40.8,262.3,40.7z M263,39.1c0-0.1,0-0.2-0.1-0.2c0,0-0.1,0.1-0.2,0.2
		c-0.1,0-0.2,0.1-0.2,0.2c0,0.2,0,0.1,0.1,0.2s0,0.3-0.1,0.3l0.1,0.3c0.1,0,0.2-0.1,0.2-0.4c0-0.1,0-0.3,0.1-0.4l-0.2,0.1
		C262.7,39.3,262.8,39.1,263,39.1L263,39.1z M263.4,38.5c0.1,0,0.2,0,0.2-0.1c0,0,0,0,0,0c-0.1,0-0.3,0.1-0.3,0.2c0,0,0,0,0,0.1
		C263.2,38.6,263.3,38.5,263.4,38.5C263.3,38.5,263.4,38.5,263.4,38.5L263.4,38.5z M263.7,33.5c-0.2,0-0.2,0.1-0.2,0.2l0.2,0.1
		L263.7,33.5z M265.1,34.7L265.1,34.7l-0.1,0.1c0,0.1,0,0.2,0,0.3c0,0.1,0,0.3,0,0.4l0.3-1L265.1,34.7z M268.8,27l0.4-0.2
		c0-0.1,0-0.2,0-0.2s0-0.2,0-0.2c0,0-0.1,0.1-0.1,0.2l-0.1,0.2L268.8,27z M269.8,26.5c0,0,0,0.1-0.1,0.1c0,0.1-0.1,0.1-0.1,0.2
		l0.3-0.2C269.9,26.6,269.9,26.5,269.8,26.5L269.8,26.5z M270.4,23.9c-0.2,0-0.3,0.1-0.3,0.2l-0.2,0.2
		C270.1,24.1,270.3,24,270.4,23.9L270.4,23.9z M271.6,23.7c0.3-0.2,0.5-0.5,0.7-0.8c-0.1,0-0.2,0.1-0.2,0.2l-0.2,0.2
		C271.8,23.3,271.7,23.4,271.6,23.7z"/>
	<path class="st0" d="M316.6,24.3l-1.2,0.2l1.3-0.1l-0.2,0.2l-0.4,0.3l0.2-0.1l-0.3,0.3l-0.4,0.2h0.1l-0.2,0.1l-0.4,0.4
		c-0.2,0.1-0.2,0.2-0.2,0.3l-0.8,0.4c-0.1,0-0.2,0.1-0.3,0.2c-0.1,0.1-0.3,0.2-0.4,0.2c-0.1,0-0.2,0-0.2,0.1l-0.5,0.1
		c-0.1,0.1-0.1,0.1-0.2,0.1c-0.7,0.2-1.5,0.4-2.2,0.6l-1.8,0.5c0,0,0.1,0.1,0.1,0.2c0.4,1,0.5,2.1,0.4,3.2c-0.1,0.9-0.4,1.8-0.7,2.7
		c-0.4,0.9-0.9,1.7-1.4,2.5c-1.9,2.6-4.4,4.6-7.3,5.9c-2.8,1.6-5.8,2.6-9,3c-1.1,0.2-2.3,0.2-3.4,0.3l-2.5,0.1h-0.4
		c0,0,0.1-0.1,0.3-0.1h0.4c0.1,0,0.2,0,0.4-0.1c0.1-0.1,0.3-0.1,0.4-0.1l1.3-0.1c0.1,0,0.2-0.1,0.4-0.1c0.1,0,0.1,0,0.2-0.1l0.1-0.2
		l-1.6-0.1h-0.1h-0.1c-0.2,0-0.3,0-0.5,0.1c-0.2,0-0.4,0.1-0.7,0.1h-0.2l-0.1,0.1H284c-0.2,0-0.3-0.1-0.4-0.2
		c-0.4,0-0.6-0.1-0.7-0.2c-0.1,0-0.2-0.1-0.3-0.2s-0.2-0.1-0.3-0.2c-0.3,0-0.6-0.2-0.8-0.4l-0.1,0.2c-0.2-0.1-0.4-0.1-0.6-0.2
		c-0.2-0.2-0.3-0.5-0.4-0.8c0.1,0,0.2,0.1,0.3,0.2l0.2,0.4c0.1,0,0.2-0.1,0.2-0.2s-0.1-0.3-0.4-0.4l0.1,0.2c-0.2,0-0.4-0.2-0.4-0.4
		c-0.1,0-0.1-0.1-0.1-0.2c0-0.2-0.1-0.1-0.2-0.3l-0.3-0.8c-0.1-0.2-0.1-0.5-0.1-0.7c0.1-1.6,0.8-3.1,2-4.3l0.1-0.2l0.3-0.3
		c0.9-1,1.9-1.8,2.9-2.6l0.2-0.2l1.7-9.7c-0.1-0.1-0.2-0.1-0.3-0.1l-0.7,0.2c-0.2,0-0.4,0.1-0.5,0.2c-0.3,0.1-0.5,0.1-0.8,0.1
		c-0.4,0-0.8-0.2-1.1-0.6c-0.2-0.5-0.3-1-0.2-1.6c-0.1-0.4,0.1-0.8,0.5-1c0.1,0,0.2,0,0.2-0.1c0.1-0.1,0.2-0.3,0.3-0.4
		c0.1-0.2,0.3-0.3,0.5-0.4l3.4-0.8c0.1-0.1,0.3-0.2,0.3-0.4c0.9-3,1.8-5.5,2.5-7.5c0.8-2,1.3-3.3,1.6-3.9l0.4-0.8
		c0.2-0.3,0.3-0.5,0.4-0.5c0.3,0,0.7,0.1,1,0.1c0.3,0.1,0.7,0.1,1,0.1h0.5c0.4-0.1,0.8,0.1,1,0.5c0.5,0.3,0.8,0.8,0.8,1.3L297.4,9
		v0.1l-0.1,0.1c-0.1,0.4-0.6,1.7-1.6,4.1c-0.7,1.7-1.3,3.4-1.8,5.2l-0.1,0.2v0.1c0.1-0.1,0.2-0.1,0.3-0.1c3.7-1.1,7.2-2.7,10.5-4.7
		c2.7-1.8,4-3.5,4-5c0-1.4-0.8-2.6-2-3.2c-1.3-0.8-2.8-1.3-4.4-1.5l-1.4-0.1c-0.5,0-1-0.1-1.6-0.1c-2.8,0-5.6,0.5-8.3,1.4
		c-2.3,0.7-4.4,2-6.1,3.8l-0.4,0.4c-0.1,0.1-0.3,0.2-0.7,0.2c-0.2,0-0.3-0.1-0.4-0.2c-0.3-0.5-0.5-1.2-0.4-1.8c0,0,0.1-0.1,0.2-0.3
		s0.2-0.2,0.2-0.3V7c0.1-1,0.7-2,1.6-2.5c3.9-3.1,8.7-4.7,13.7-4.5c3.5,0,6.9,1,9.9,2.9c2.1,1.4,3.4,3.8,3.5,6.4V10
		c-0.1,1.3-0.6,2.6-1.4,3.8c-0.8,1.1-1.7,2.1-2.8,3c-1.1,0.9-2.4,1.6-3.7,2.2c-1.4,0.7-2.6,1.2-3.4,1.6c-0.9,0.4-1.8,0.7-2.7,0.9
		c3.9,0.8,6.8,2.2,8.8,4.4C310.5,25.1,313.7,24.6,316.6,24.3z M281.1,44.1l0.2,0.4c0.3,0.2,0.7,0.3,1,0.3l0.4,0.2
		c0-0.1,0-0.1-0.1-0.2c0-0.1,0-0.2-0.1-0.2c0,0,0,0,0,0c-0.2-0.1-0.4-0.1-0.6-0.1c-0.2,0-0.3-0.1-0.4-0.2c0,0-0.1,0-0.1-0.1
		C281.2,44.1,281.1,44.1,281.1,44.1z M304.9,29.3c-2.6,0.8-5.2,1.7-7.6,2.9c-3.6,1.6-6.2,2.8-7.8,3.6c0,0.3-0.1,0.5-0.2,0.8
		c-0.1,0.5-0.2,1-0.2,1.5v0.4c0,0.2-0.1,0.4-0.1,0.5c-0.1,0.1-0.1,0.3-0.1,0.5c0,0.1,0,0.1,0.1,0.2l0.1,0.2c0,0,0,0.1,0,0.1
		c0,0,0,0,0,0l-0.1,0.1c0,0.2,0,0.2-0.1,0.2c0,0-0.1,0-0.1-0.1s-0.1-0.1-0.1-0.1c0,0.2,0,0.2,0.1,0.2h-0.1h-0.1c0,0-0.1,0.1-0.3,0.1
		l-0.3-0.1l-0.3-0.1c-0.5-0.4-0.9-0.8-1.3-1.3l-0.7-1.3c-0.5,0.3-1,0.7-1.4,1.2c-0.4,0.4-0.8,0.9-1,1.4l-0.2,0.4
		c-0.1,0.2-0.2,0.4-0.2,0.6c0,0.7,0.7,1,2.2,1.1h0.5c2.2,0,4.3-0.3,6.4-0.9c2.2-0.5,4.3-1.3,6.4-2.3
		C303.4,36.2,305.7,32.9,304.9,29.3z M284.7,46l0.5-0.1c0,0,0,0.1-0.1,0.1c-0.1,0-0.2,0.1-0.2,0.1h-0.7L284.7,46L284.7,46z
		 M285,45.5h-0.2c-0.1,0-0.1,0-0.2,0.1h0.5L285,45.5z M285.7,45.3l-0.3,0.1H285c0.1,0,0.3,0.1,0.4,0.1
		C285.6,45.4,285.7,45.3,285.7,45.3L285.7,45.3z M286.1,45.9h-0.8c0.3-0.1,0.6-0.2,0.8-0.2l1.3,0.1c-0.2,0-0.3,0-0.5,0.1
		c-0.2,0-0.4,0.1-0.5,0.1L286.1,45.9z M299.7,28c0.2-0.1,0.5-0.2,0.8-0.2l0.9-0.2c0.4-0.3,0.8-0.4,1.3-0.5c-1.3-0.8-2.7-1.3-4.2-1.6
		c-1.4-0.3-2.9-0.5-4.3-0.6H293c-0.3,0-0.7,0-1,0.1c-0.5,1.7-0.9,3.4-1.4,5.2l-0.4,1.7l-0.1,0.4c0.1,0,0.1,0,0.1-0.1c0,0,0,0,0,0
		c0.1,0,0.1,0,0.2-0.1l0.5-0.5c0,0.1,0,0.2-0.1,0.2c0.1,0,0.2-0.1,0.3-0.2l0.3-0.1l-0.3-0.1c0-0.1,0.2-0.1,0.5-0.1
		c0.2,0,0.3-0.1,0.4-0.2c0-0.1,0.2-0.2,0.4-0.2h0.2c-0.1,0.1-0.3,0.1-0.4,0.2c0.1,0,0.3,0,0.4-0.1c0.4-0.4,0.8-0.6,1.3-0.8
		c0.5-0.3,1-0.5,1.5-0.7c0.1,0,0.1,0,0.1,0.1c0,0,0,0,0,0c0,0,0.1,0,0.2-0.2c0.1-0.1,0.2-0.1,0.3-0.2l0.1-0.1l0.3-0.1
		c0.1,0,0.2-0.1,0.3-0.1c0.3,0,0.5,0,0.8-0.2c0.1-0.3,0.4-0.4,0.7-0.4c0.1,0,0.2,0.1,0.3,0.2c0.2,0,0.4-0.1,0.6-0.2
		c-0.1-0.1-0.1-0.1-0.2-0.1c0.2-0.1,0.4-0.1,0.5-0.2C299.6,28,299.7,28,299.7,28z M291.1,32.8c-0.2,0-0.3,0.1-0.4,0.2
		c0.4-0.2,0.6-0.4,0.7-0.6c0.1-0.4,0,0.1-0.1,0.2S291.1,32.7,291.1,32.8L291.1,32.8z M292.2,45.2h-0.3c-0.1,0.1-0.2,0.1-0.4,0.1
		c-0.1,0-0.1,0-0.2,0.1l-0.2,0.1l-0.1,0.1l0.7-0.2L292.2,45.2z M293.3,31.8l-0.1,0.1l-0.1,0.1h-0.2c-0.3,0-0.6,0.1-0.8,0.4
		c-0.3,0.2-0.4,0.4-0.5,0.4h0.5l-0.6,0.2h0.2C292.1,32.9,292.6,32.5,293.3,31.8L293.3,31.8z M293.1,31.6c0.1,0,0.2,0,0.3-0.1
		c0-0.2-0.1-0.2-0.2-0.2c-0.1,0-0.2,0-0.2,0.1l-0.1,0.2v0.1l0.1-0.1L293.1,31.6z M293.3,18.4l-0.1,0.5c0.5-1.1,0.9-2.2,1.3-3.4
		l-0.2,0.3l-0.7,1.8c-0.1,0.1-0.2,0.2-0.2,0.3V18l0.1,0.1L293.3,18.4z M295.6,43.9h-0.5c-0.1,0.1-0.3,0.2-0.4,0.2l-0.4,0.4h0.1
		l0.1-0.1L295.6,43.9z M296.5,30.8h0.1c0.1,0,0.1,0,0.2,0l-0.1-0.1l-0.1-0.1c-0.1,0-0.2,0.1-0.3,0.1c-0.1,0.1-0.2,0.1-0.3,0.2
		c-0.1,0.1-0.1,0.1,0,0.1C296.3,31,296.4,30.9,296.5,30.8L296.5,30.8z M297.4,30l-0.5,0.1c0,0-0.1,0-0.1,0.1s-0.1,0.1-0.2,0.1
		l0.4,0.1c0,0,0.1-0.1,0.2-0.1c0,0,0.1,0,0.1,0c0,0,0,0,0,0l0.1,0.1c0-0.2,0.1-0.4,0.3-0.4c0,0,0.1,0,0.1,0l0.4-0.2l0.1-0.2
		l-0.4,0.2C297.6,29.9,297.5,29.9,297.4,30L297.4,30z M299.7,20.5l-0.2-0.2h-0.4l-0.1,0.3c0,0,0.1,0.1,0.2,0.1c0.1,0,0.2,0,0.2-0.1
		C299.6,20.5,299.7,20.5,299.7,20.5L299.7,20.5z M299.9,29.8l-0.4-0.1c0,0.2,0.2,0.2,0.5,0.2c0.5,0,0.7-0.1,0.7-0.2L299.9,29.8z
		 M302.1,29.1l-0.4,0.2l0.5-0.1C302.3,29.2,302.2,29.1,302.1,29.1L302.1,29.1z M303.4,29.4l0.9-0.4c-0.1,0-0.2-0.1-0.2-0.1
		c0,0-0.1,0.1-0.2,0.2l-0.2-0.2c0,0,0.1-0.1,0.2-0.2l0.1,0c-0.2,0-0.3,0-0.4,0.1c-0.1,0.1-0.3,0.3-0.4,0.3s-0.3,0.2-0.4,0.3
		c0.1,0,0.2-0.1,0.4-0.1L303.4,29.4z M302.8,27.9l0.2-0.1c0.2,0,0.2,0,0.2-0.1H303L302.8,27.9z M308.7,14.8c0-0.1,0-0.2,0.1-0.3
		c-0.2,0-0.2,0.1-0.2,0.2c0,0.2,0,0.1-0.1,0.1l-0.2,0.1l-0.1,0.1C308.3,15,308.5,14.9,308.7,14.8L308.7,14.8z M308.7,14.8
		c0,0.1,0,0.2-0.1,0.3c0,0.1,0,0.1-0.1,0.1c-0.1,0.1-0.1,0.1-0.2,0.1c-0.1,0-0.1,0.1-0.2,0.2c0,0,0.1,0,0.3-0.1l0.3-0.3
		c0.1,0,0.3-0.1,0.4-0.2l-0.2-0.1C308.8,14.9,308.7,14.8,308.7,14.8L308.7,14.8z"/>
	<path class="st0" d="M326.8,38.5c0.6,0,2.3-1.8,5-5.4c1.6-2.2,3.1-4.3,4.4-6.2l0.6-0.9l0.7-1c0,0.2,0,0.2,0.1,0.2l-0.1,0.2
		c-0.2,0.4-0.3,0.5-0.2,0.5l0.4-0.5l0.1,0.2l-0.4,1l0.5-0.7v0.4l-0.2,0.3c0,0,0,0.1,0.1,0.1c0,0.1,0.1,0.1,0.1,0v0.5
		c0,0.1-0.1,0.3-0.2,0.4l-0.1,0.4l-0.1,0.2c-0.1,0.3-0.2,0.5-0.4,0.7l-0.8,1.2c-0.3,0.5-0.7,1.1-1.3,1.9l-2,2.7
		c-1,1.4-2.2,2.7-3.4,3.8c-1.3,1.2-2.3,1.8-3.1,1.8c-1-0.1-1.9-0.5-2.6-1.1c-0.9-0.7-1.4-1.7-1.4-2.8v-0.4c0.1-1.5,0.3-2.9,0.7-4.4
		c-0.9,1.7-1.9,3.3-3.1,4.7c-1.2,1.5-2.3,2.2-3.2,2.2h-0.3c-1-0.2-1.9-0.7-2.7-1.3c-0.7-0.5-1.1-1.2-1.3-2v-0.7
		c0-0.2-0.1-0.4-0.1-0.5c0.1-2.8,0.7-5.5,1.9-8c0.6-1.4,1.4-2.6,2.3-3.8c1-1.3,1.8-2,2.2-2c0.7,0,1.3,0.2,2,0.4
		c0.9,0.3,1.3,0.5,1.3,0.8l-0.1,0.3c-3.1,5.7-4.8,10.3-5.2,13.7l0.1,0.4c0.2,0,1.8-2.5,4.8-7.3c3-4.8,4.8-7.2,5.5-7.1
		c0.9-0.1,1.8,0.2,2.5,0.8c0,0.1,0,0.2,0,0.3c0,0,0,0.1,0,0.2c0,0.1,0.1,0.2,0.2,0.4l0.2,0.2c-1.8,4.7-3.1,9.5-3.8,14.5v0.2
		C326.6,38.4,326.7,38.5,326.8,38.5z M316.6,35.2l0.1-0.4l-0.4,0.4c0.1,0.1,0.2,0.2,0.3,0.3l0.1-0.1c0.1-0.1,0.1-0.2,0.2-0.2
		l0.1-0.5c0,0-0.1,0.1-0.2,0.4L316.6,35.2C316.7,35.2,316.6,35.2,316.6,35.2L316.6,35.2z M317,34.3c0-0.1,0-0.1,0.1-0.2
		c0-0.2,0.1-0.4,0.2-0.7c-0.2,0.2-0.3,0.5-0.3,0.7c0,0.1-0.1,0.1-0.2,0.1v0.2C316.8,34.5,316.9,34.4,317,34.3L317,34.3z M316.8,35.8
		l0.1-0.3c0,0-0.1,0-0.1,0.1s0,0.1-0.1,0.1c0,0,0,0.1,0,0.1s0,0.1,0,0.1c0,0.2,0,0.4,0.1,0.4L316.8,35.8z M325.2,34.8l-0.4,0.1
		c0,0,0,0.1,0.1,0.1c0.1,0,0.1,0.1,0.1,0.2C325.2,35,325.2,34.9,325.2,34.8L325.2,34.8z M325.4,35.4c0.1-0.2,0.1-0.4,0.2-0.6
		c-0.2,0.3-0.3,0.4-0.4,0.4C325.3,35.4,325.4,35.4,325.4,35.4L325.4,35.4z M325.6,37.4l-0.1-0.5l0.1-0.2c-0.2,0-0.2,0.2-0.2,0.5
		L325.6,37.4z M326.1,38.1C326.1,38.1,326.1,38,326.1,38.1C326.1,38,326.1,38,326.1,38.1l-0.1-0.2l-0.1,0.4
		C326.1,38.2,326.1,38.1,326.1,38.1L326.1,38.1z M326.3,37.1c0-0.1,0-0.2,0.1-0.4c0.1-0.3,0.1-0.5,0.1-0.8c-0.3,0.4-0.4,0.9-0.3,1.3
		l0.1,0.3c0-0.1,0-0.2,0.1-0.3V37.1z M326.6,35.6c0.1-0.1,0.2-0.3,0.2-0.5c0-0.2-0.1-0.2-0.2-0.2C326.7,35.1,326.7,35.4,326.6,35.6
		L326.6,35.6z M327,33.6c-0.1,0-0.1,0.1-0.1,0.2c0,0.1,0,0.1-0.1,0.2l0.2,0.3c0,0,0-0.2,0.1-0.4V33.6z M327.3,26.7l-0.1,0.2
		c-0.1,0-0.1,0.1-0.1,0.2C327.2,27.1,327.3,27,327.3,26.7L327.3,26.7z M327.9,30.2l1-3.6c-0.8,1.9-1.4,3.9-1.7,5.9l-0.1,0.8
		L327.9,30.2z M330.4,36.8c0.2-0.1,0.3-0.2,0.4-0.4V36C330.6,36.2,330.5,36.5,330.4,36.8L330.4,36.8z"/>
	<path class="st0" d="M334.3,38.7c0.1-0.1,0.1-0.2,0.2-0.3c0.1-0.1,0.2-0.3,0.3-0.4c0.1-0.1,0.1-0.2,0.1-0.3
		c0.2-0.3,0.4-0.6,0.7-0.8c0.3-0.3,0.6-0.6,1-0.8l-0.4,0.4l-0.5,0.5c-0.2,0.2-0.2,0.3-0.2,0.4l0.4-0.4l0.5-0.5l0.2-0.2
		c0.1,0,0.1,0,0.1,0c0,0,0,0,0.1,0l0.1-0.2c0-0.1,0-0.1,0.1-0.2l0.2-0.2c0.3-0.2,1.1-0.8,2.3-1.7l-0.5-1.1c-1.3-2.4-2.1-5.1-2.2-7.9
		c0-2.1,1-4.1,2.8-5.4c1.5-1.4,3.5-2.2,5.6-2.3l1.1,0.2l1.9,0.8c0.6,0,1.2,0.5,1.7,1.4c0.4,0.7,0.7,1.4,0.8,2.2
		c0,1.1-0.5,2.1-1.4,2.8H349l-0.1,0.1c-0.1,0.1-0.1,0.2-0.2,0.2c-0.1,0.1-0.3,0.1-0.4,0.1c-0.2,0-0.4,0-0.6-0.1h-0.1l-0.4-0.1
		l-0.4-0.1c-0.4-0.2-0.7-0.3-0.7-0.5c0-0.2,0.1-0.5,0.4-1.5c0.2-0.7,0.4-1.4,0.4-2.1c0-0.3-0.1-0.4-0.3-0.4h-0.2
		c-1.3,0-2.5,0.4-3.5,1.2c-1.1,0.7-1.7,1.9-1.7,3.2c0,1.2,0.8,3.4,2.3,6.7c0.7-0.4,1.8-1.1,3.3-2s2.9-1.7,4.1-2.4
		c0.9-0.5,1.7-1.1,2.5-1.8c0,0.1-0.1,0.2-0.2,0.3c-0.4,0.5-0.8,0.8-1.3,1.1c0.1,0,0.2,0,0.3,0l0.2-0.1l0.3-0.2
		c0.2-0.1,0.3-0.3,0.5-0.4c-0.2,0.2-0.4,0.5-0.7,0.7l-0.1,0.1l-0.4,0.4l0.4-0.3l0.5-0.4h0.3c-0.2,0.1-0.4,0.2-0.5,0.4
		c-0.1,0.2-0.3,0.4-0.5,0.5c0.4,0,0.8-0.2,1.1-0.5c0,0.3-0.4,0.7-1.1,1.2c0,0.1,0,0.2,0,0.3c0,0.1,0.1,0.1,0.2,0
		c0,0.2-0.8,0.8-2.5,1.8l-5.8,3.5c0.3,0.7,0.4,1.4,0.5,2.2c0,0.3,0.1,0.6,0.1,0.8c0,1.9-0.9,3.7-2.4,4.9c-1.4,1.2-3.2,1.9-5.1,2
		l-0.8-0.1c-0.8,0-1.5-0.4-2.1-1C333.6,41.4,333.4,39.8,334.3,38.7L334.3,38.7z M335.9,40.6c0.3,0.1,0.6,0.2,0.9,0.2
		c1.1-0.1,2-0.6,2.7-1.5c0.8-0.7,1-1.8,0.7-2.8c-0.9,0.6-1.8,1.3-2.5,2.1c-0.9,0.8-1.3,1.4-1.3,1.6c0,0.4,0,0.1-0.1,0.1l-0.2,0.1
		C335.9,40.5,335.9,40.5,335.9,40.6L335.9,40.6z M340,26.1v-0.5c0,0.1,0,0.1-0.1,0.2s-0.1,0.1-0.1,0.2L340,26.1z M342.4,31.2
		l-0.1-0.2c0,0.2,0.1,0.4,0.1,0.6l0.3,0.3L342.4,31.2z M342.8,40.4v-0.2l0.1-0.1l-0.1-0.1v-0.1c-0.1,0.1-0.1,0.2-0.1,0.3
		C342.7,40.2,342.7,40.3,342.8,40.4L342.8,40.4z M343.2,31.6l0.2-0.1c-0.2-0.4-0.5-0.8-0.7-1.2C342.9,30.7,343,31.2,343.2,31.6z
		 M343.3,37.3l-0.4,0.2c0,0.1,0.1,0.2,0.2,0.2c0,0,0.1-0.1,0.1-0.2v-0.1C343.3,37.4,343.3,37.3,343.3,37.3z M343.2,39.4l0.1-0.3
		c-0.2,0.2-0.3,0.5-0.3,0.8C343.2,39.7,343.2,39.5,343.2,39.4z M344,39.5l-0.3,0.7c0.1,0,0.1-0.1,0.2-0.2
		C344,39.8,344,39.6,344,39.5L344,39.5z M344.3,33.7l-0.2,0.1c0.3,0.9,0.5,1.9,0.5,2.9c0,0.1,0,0.2,0,0.4c0,0.2,0,0.3,0,0.3
		c-0.1,0.5-0.2,1-0.4,1.4l-0.1,0.3c0.4-0.8,0.6-1.7,0.6-2.6C344.8,35.6,344.7,34.6,344.3,33.7L344.3,33.7z"/>
	<path class="st0" d="M365.3,28.2l-0.2,0.5l1.1-1.4l0.1-0.1l0.1-0.1c0,0.1-0.1,0.2-0.1,0.3l-0.1,0.2l-4.9,6.8
		c-1.2,1.9-2.8,3.5-4.6,4.7c-0.7,0.4-1.4,0.7-2.2,0.8c-0.7,0-1.1-0.1-1.2-0.3c-0.2,0-0.4-0.1-0.6-0.2l-0.5-0.3
		c-1.2-0.6-1.8-2.1-1.8-4.7c0-1.4,0.3-2.8,0.7-4.2c0.6-1.6,1.2-3.2,2-4.8c0.6-1.3,1.2-2.6,1.6-3.9c0.1-0.4,0.4-0.6,0.8-0.6
		c0.1,0,0.2,0.1,0.3,0.1c0.1,0.1,0.2,0.1,0.2,0.1c0.7,0.2,1.4,0.5,1.9,1c0.2,0.2,0.3,0.4,0.2,0.7c0,0.1,0,0.3,0,0.5
		c0,0.2,0,0.3,0,0.4v0.2c-0.5,1.9-1.1,3.9-1.9,5.7l-0.2,0.4c-0.7,1.8-1.2,3.7-1.5,5.6l-0.1,0.5c0,1,0,1.4,0.1,1.4
		c0.2,0,0.3,0,0.5-0.1c0.9-0.7,1.7-1.4,2.3-2.3c1-1.2,2-2.4,2.9-3.6c0.9-1.2,1.9-2.6,3.1-4.2s1.9-2.6,2.2-2.9c0,0.4-0.1,0.7-0.3,1.1
		l0.2-0.2l-0.1,0.4l-0.6,1.1c0.2-0.3,0.5-0.5,0.7-0.8l-0.2,1.1l0.1-0.1l0.1-0.1L365.3,28.2z M352.2,30.4c0-0.1,0.1-0.1,0.1-0.2
		l0.1-0.2c0,0,0-0.1,0-0.1c0-0.1,0-0.2-0.1-0.2c0,0,0,0,0,0l-0.1,0.2c-0.1,0.1-0.1,0.1-0.1,0.2c0.1,0,0.2,0,0.2,0.1l-0.1,0.1
		L352.2,30.4z M352.8,30.5c-0.1,0-0.1,0-0.2-0.1c-0.2,0-0.3,0.1-0.4,0.4l0.2,0.1c0,0,0.1-0.1,0.2-0.2
		C352.7,30.7,352.7,30.6,352.8,30.5L352.8,30.5z M353.9,33.4c0,0,0.1-0.1,0.1-0.2V33c0-0.1,0-0.2,0-0.2c-0.2,0.1-0.3,0.2-0.2,0.4
		l-0.1,0.2C353.6,33.4,353.8,33.4,353.9,33.4L353.9,33.4z M353.9,34v1c0,0.1-0.1,0.2-0.1,0.4c0.1-0.1,0.2-0.2,0.2-0.3
		c0-0.6,0.1-1,0.1-1.1L353.9,34z M354.4,33.3c0,0.3,0,0.6-0.1,0.9c0.2-0.2,0.3-0.4,0.3-0.7C354.6,33.6,354.5,33.5,354.4,33.3
		L354.4,33.3z M354.6,32.2c0,0,0.1-0.1,0.1-0.2c-0.2,0-0.2,0-0.2,0.1c-0.1,0.1-0.1,0.1-0.1,0.2C354.5,32.3,354.6,32.3,354.6,32.2
		L354.6,32.2z M354.6,32.5c0,0,0.1,0.1,0.1,0.2s0.1-0.1,0.2-0.3C354.7,32.4,354.6,32.5,354.6,32.5L354.6,32.5z M356.6,38.9l0.4-0.4
		c0,0-0.1,0.1-0.1,0.1s-0.1,0-0.1,0.1c-0.5,0.2-0.8,0.3-0.8,0.5L356.6,38.9z M358.9,16.3c0.5,0,1,0.2,1.4,0.5c0.5,0.3,0.8,0.7,0.8,1
		c-0.2,0.6-0.6,1.1-1,1.4c-0.4,0.4-1,0.6-1.6,0.5c-0.2,0-0.4,0-0.5-0.1c-0.4-0.2-0.8-0.4-1.1-0.7c-0.2-0.4-0.4-0.8-0.4-1.2
		c0-0.5,0.2-0.9,0.6-1.1c0.4-0.2,0.8-0.4,1.2-0.4L358.9,16.3z M358.6,36c0,0.1,0,0.3-0.1,0.4l-0.4,0.2c0,0-0.1,0.1-0.2,0.4
		c0.6-0.5,0.8-0.8,0.8-1c0,0,0-0.1,0-0.1s0-0.1,0-0.1L358.6,36z M359.2,35.1l0.2-0.2c-0.1,0.1-0.1,0.1-0.2,0.1
		C359.1,35,359.1,35.1,359.2,35.1c-0.1,0.1-0.1,0.1-0.1,0.2C359,35.3,359.2,35.2,359.2,35.1L359.2,35.1z M359.9,34.8l-0.1,0.4
		l0.4-0.5L359.9,34.8z M360.7,33.8c-0.3,0.2-0.5,0.3-0.5,0.4l0.1,0.3l0.1-0.1c0.1-0.1,0.1-0.2,0.2-0.4
		C360.6,34,360.7,33.9,360.7,33.8L360.7,33.8z"/>
	<path class="st0" d="M387.2,25.3c0,0.3,0,0.7-0.1,1l0.1-0.1l0.2,0.5l0.5-0.7l-0.9,1.3c0.3-0.2,0.6-0.5,0.8-0.7v0.5l-1.7,2.9
		l-0.8,1.1l-0.3,0.4l0.1-0.2c0-0.1,0.1-0.2,0.1-0.3c0,0,0,0-0.1,0.1c-0.1,0.1-0.1,0.2-0.2,0.3c-0.1,0.1-0.1,0.1-0.1,0.2
		c0,0,0,0.1,0,0.1c0,0,0,0,0,0l0.1,0.1c-0.1,0.3-0.2,0.5-0.5,0.7c-0.1,0.1-0.2,0.1-0.3,0.1l-0.1,0.1c0,0.1,0,0.2-0.1,0.2l-0.4,0.5
		c0,0,0,0.1,0,0.1c0,0,0,0,0,0l0.1-0.1c0.1-0.1,0.2-0.2,0.3-0.2l0.1-0.2c-0.4,0.6-0.7,1-0.8,1.1c-0.2,0.3-0.7,1-1.6,2.1
		c-0.8,1.1-1.4,1.9-1.7,2.2c-1.6,2-2.9,3.1-4.1,3.3h-0.3h-0.3c-0.5,0-1.1-0.2-1.6-0.4c-1.1-0.6-1.8-1.7-1.8-2.9v-1
		c0-0.1,0-0.3,0.1-0.4v-0.4c0-0.3,0-0.7,0.1-1c0.2-1,0.4-1.9,0.7-2.8c1.5-4.8,2.3-7.5,2.4-8l0.1-1c0-0.1,0-0.2-0.1-0.2
		c-0.6,0.2-1.6,1.3-3.1,3.2c-1.6,2.2-3.1,4.5-4.3,6.9c-0.3,0.5-0.6,1.1-0.8,1.7c-0.2,0.6-0.5,1.2-0.8,1.8l-0.2,0.5
		c-0.2,0.5-0.7,0.9-1.3,0.8h-0.1h-0.1c-0.3-0.1-0.6-0.3-0.9-0.5l-1-0.8c-0.2-0.1-0.3-0.2-0.5-0.3c-0.2,0-0.4-0.1-0.4-0.2
		c-0.1-0.2,0-0.1-0.1-0.2s-0.1-0.1-0.1-0.2c0-0.1,0.1-0.3,0.1-0.4c1.9-7,3.3-12.2,4-15.7c0.1-0.4,0.3-0.5,0.5-0.5
		c0.3,0.1,0.7,0.2,1,0.3c0.3,0.1,0.7,0.3,1,0.5c0.7,0.5,1,0.9,1,1.2c0,0.1,0,0.2,0,0.5c0,0.2,0,0.4,0.1,0.6v0.3
		c-0.1,1.2-0.3,2.5-0.7,3.7c0.7-1.3,1.6-2.4,2.6-3.5c0.7-0.9,1.6-1.6,2.6-2.2c0.4-0.3,0.9-0.5,1.4-0.5c0.1,0,0.1,0,0.2,0.1l0.6,0.2
		c0.3,0.1,0.5,0.2,0.8,0.3l0.7,0.3c0.2,0.1,0.5,0.2,0.7,0.4l0.5,0.4c0.2,0.1,0.3,0.3,0.5,0.5c0.1,0.2,0.2,0.4,0.2,0.7
		c0.1,0.6,0.2,1.2,0.2,1.8c-0.2,2.1-0.7,4.2-1.4,6.2c-0.1,0.4-0.3,1-0.6,1.9c-0.3,0.9-0.5,1.6-0.6,2.1c-0.2,0.6-0.4,1.2-0.5,2
		c-0.1,0.6-0.2,1.2-0.3,1.8c0,0.2,0,0.4,0.1,0.4c0.2,0,0.7-0.4,1.4-1.3c0.8-0.9,1.6-2,2.6-3.4l2.9-4c0.9-1.3,1.8-2.5,2.6-3.7
		L387.2,25.3z M363.5,32.9c0-0.1,0.1-0.3,0.1-0.4c-0.1,0-0.1,0-0.2,0.1C363.5,32.6,363.5,32.8,363.5,32.9L363.5,32.9z M364.7,31
		c0,0,0-0.1-0.1-0.1s-0.1-0.1-0.1-0.1l-0.2,0.4c0.1,0,0.1-0.1,0.2-0.1L364.7,31z M375.4,38.4l0.2,0.3c0,0.1,0,0.2-0.1,0.3
		c-0.1,0.1-0.1,0.3-0.1,0.4l0.2-0.1l0.1-0.2c0-0.2,0-0.4,0.1-0.7v-0.2l0.1-0.1c0,0,0.1-0.1,0.1-0.3c0.1-0.2,0.1-0.4,0.2-0.6V37
		c-0.1,0-0.2,0.1-0.2,0.2c0,0.2-0.1,0.3-0.1,0.3c0,0.1-0.1,0-0.2,0.1c0-0.1,0.1-0.3,0.1-0.4l0.1-0.3l0.1-0.1v-0.2
		c0.1,0,0.1-0.1,0.1-0.2c0.1,0,0.1-0.1,0.1-0.3l0.1-0.1l0.1-0.1c0,0,0.1-0.1,0.2-0.2s-0.1-0.1-0.2-0.1l-0.1-0.4v0.3h-0.2
		c0,0.1,0,0.1,0.1,0.2c-0.1,0-0.2,0.1-0.2,0.2c0,0,0,0,0,0.1l0.2-0.1c0,0,0,0.1-0.1,0.2c-0.1,0-0.1,0.1-0.1,0.2c0,0.1,0,0.2-0.1,0.2
		l0.1,0.2c0,0,0,0.1-0.1,0.1l-0.1,0.1c0,0,0,0.1,0.1,0.1v0.1c0,0,0,0.1,0,0.3c0,0.1,0,0.2,0,0.4c0.1,0.1,0.2,0.2,0.2,0.2l-0.1,0.1
		C375.5,38.2,375.4,38.3,375.4,38.4L375.4,38.4z M376.1,36.7c0,0,0.1-0.1,0.1-0.1l0.1-0.3C376.1,36.4,376.1,36.6,376.1,36.7
		L376.1,36.7z M376.4,34.1l-0.2-0.1l0.2,0.2c0,0,0.1,0,0.2-0.1l0.1-0.5c-0.1,0-0.1,0-0.1,0.1c0,0,0,0,0,0
		C376.5,33.8,376.4,34,376.4,34.1z M376.9,30.3c0,0.1,0,0.1-0.1,0.2c-0.1,0.1-0.1,0.2-0.1,0.4c0.1-0.3,0.3-0.7,0.5-0.9
		C377.1,30,377,30.2,376.9,30.3L376.9,30.3z M377.9,29.4c-0.1,0.3-0.2,0.5-0.3,0.7l0.3-0.4c0.1,0,0.1-0.1,0.1-0.3v-0.2L377.9,29.4
		L377.9,29.4z M380.8,37.2c-0.1,0.1-0.1,0.2-0.1,0.3l-0.5,0.5c0,0,0.1-0.1,0.3-0.2s0.2-0.2,0.3-0.2s0.1-0.2,0.4-0.5
		c0,0-0.1,0-0.1,0.1C380.9,37.1,380.8,37.2,380.8,37.2L380.8,37.2z M382.6,34.9c-0.1,0-0.1,0-0.1,0.1c-0.1,0.1-0.1,0.1-0.1,0.2
		c0,0.1-0.1,0.1-0.1,0.2l0.1-0.1v-0.1l-0.1,0.1l-0.2,0.2l0.2-0.1l-0.2,0.3C382.1,35.7,382.3,35.4,382.6,34.9L382.6,34.9z
		 M383.2,34.2l0.1-0.2c0.1-0.1,0.2-0.2,0.2-0.3c-0.1,0.1-0.2,0.2-0.3,0.3l-0.3,0.2c-0.1,0.1-0.1,0.1-0.1,0.2c0,0.1-0.1,0.2-0.1,0.3
		L383.2,34.2z M386,29.9l-0.2,0.3l0.3-0.1l0.2-0.5c0,0,0,0.1-0.1,0.2S386,29.9,386,29.9z"/>
	<path class="st0" d="M389.7,39c1.3,0,4.1-2.5,8.2-7.6c3-3.9,4.6-6,4.8-6.2l-0.1,0.6c0.1-0.1,0.2-0.3,0.3-0.4c0,0,0,0.1-0.1,0.5
		c0,0.1-0.1,0.2-0.1,0.2l0.2-0.4l0.1,0.1c0.1,0.1,0.1,0.1,0.1,0.2c0,0.1,0.1,0.1,0.1,0.2c0.1,0,0.1,0.1,0.1,0.2
		c0,0.1,0.1,0.2,0.1,0.2c0.1,0,0,0.2-0.2,0.5s-0.3,0.6-0.5,0.9c-0.1,0.2-0.2,0.3-0.4,0.5l-1.4,2c-5,7-8.8,10.4-11.6,10.4
		c-1.5,0-3-0.7-3.9-2c-1-1.3-1.6-2.9-1.5-4.6c0-0.1,0-0.3,0-0.6c0-0.3,0-0.4,0-0.6c0.3-3,1.3-5.9,2.9-8.5c1.7-3,3.7-4.7,6-5.3
		c0.8,0.1,1.7,0.3,2.4,0.7c0.7,0.3,1.4,0.8,2,1.4c0.3,0.3,0.4,0.6,0.4,1v0.3c0,1.8-0.8,3.5-2.2,4.7c-1.2,1.1-2.8,1.8-4.5,1.8h-0.7
		c-0.1,0-0.2,0.1-0.4,0.2c-0.4,1-0.6,2-0.8,3.1c-0.3,1.2-0.5,2.5-0.5,3.8v0.7c0,0.5,0.2,0.9,0.4,1.3C389.2,38.8,389.5,39,389.7,39z
		 M387.3,36.1v0.5l0.3-0.1C387.6,36.3,387.5,36.2,387.3,36.1z M387.8,35.5l0.1,0.5c0.1,0,0.1-0.3,0.1-0.8l-0.2,0.2L387.8,35.5z
		 M388.5,33c-0.1,0.6-0.2,1.2-0.2,1.8c0.3-1.8,0.7-3.6,1.3-5.4c-0.2,0.4-0.3,0.7-0.4,0.9l-0.3,0.8l0.1-0.1c0,0.1-0.1,0.3-0.1,0.4
		c-0.2,0-0.2,0.2-0.2,0.7c0,0.1-0.1,0.2-0.1,0.2c-0.1,0-0.2,0-0.2,0.1l0.2-0.8l0.7-2.1l-0.2,0.2c-0.4,1.2-0.7,2.4-0.8,3.7l0.2-1
		c0.1,0.1,0.1,0.2,0.1,0.3L388.5,33z M391.1,26.4l-0.4-0.1c0,0-0.1,0-0.1,0.1s-0.1,0.1-0.1,0.1l0.2,0.3
		C390.6,26.5,390.8,26.4,391.1,26.4z M391.4,26.5l-0.3,0.5c1-0.3,2-0.9,2.6-1.7c0.7-0.7,1.2-1.6,1.3-2.7c0-0.1,0-0.1-0.1-0.2
		c-0.1,0-0.1,0-0.1-0.1C393.3,23.5,392.2,24.9,391.4,26.5z M391.4,25.8l-0.2-0.1V26C391.3,25.9,391.4,25.9,391.4,25.8z M400.3,31.1
		c-0.1,0-0.1,0-0.1,0.1c0,0,0,0,0,0c0,0,0,0,0.1,0c0.1-0.1,0.1-0.1,0.2-0.2c0.1-0.1,0.1-0.1,0.1-0.2l-0.2,0.1L400.3,31.1z"/>
	<path class="st0" d="M399.3,38.7c0.1-0.1,0.1-0.2,0.2-0.3c0.1-0.1,0.2-0.3,0.3-0.4c0.1-0.1,0.1-0.2,0.1-0.3
		c0.2-0.3,0.4-0.6,0.7-0.8c0.3-0.3,0.6-0.6,1-0.8l-0.4,0.4l-0.5,0.5c-0.2,0.2-0.2,0.3-0.2,0.4l0.4-0.4l0.5-0.5l0.2-0.2
		c0.1,0,0.1,0,0.1,0s0,0,0.1,0L402,36c0-0.1,0-0.1,0.1-0.2l0.2-0.2c0.3-0.2,1.1-0.8,2.3-1.7l-0.5-1.1c-1.3-2.4-2.1-5.1-2.2-7.9
		c0-2.1,1-4.1,2.8-5.4c1.5-1.4,3.5-2.2,5.6-2.3l1.1,0.2l1.9,0.8c0.6,0,1.2,0.5,1.7,1.4c0.4,0.7,0.7,1.4,0.8,2.2
		c0,1.1-0.5,2.1-1.4,2.8H414l-0.1,0.1c-0.1,0.1-0.1,0.2-0.2,0.2c-0.1,0.1-0.3,0.1-0.4,0.1c-0.2,0-0.4,0-0.6-0.1h-0.1l-0.4-0.1
		l-0.4-0.1c-0.4-0.2-0.7-0.3-0.7-0.5c0-0.2,0.1-0.5,0.4-1.5c0.2-0.7,0.4-1.4,0.4-2.1c0-0.3-0.1-0.4-0.3-0.4h-0.2
		c-1.3,0-2.5,0.4-3.5,1.2c-1.1,0.7-1.7,1.9-1.6,3.2c0,1.2,0.8,3.4,2.3,6.7c0.7-0.4,1.8-1.1,3.3-2s2.9-1.7,4.1-2.4
		c0.9-0.5,1.7-1.1,2.5-1.8c0,0.1-0.1,0.2-0.2,0.3c-0.4,0.5-0.8,0.8-1.3,1.1c0.1,0,0.2,0,0.3,0l0.2-0.1l0.3-0.2
		c0.2-0.1,0.3-0.3,0.5-0.4c-0.2,0.2-0.4,0.5-0.7,0.7l-0.1,0.1l-0.4,0.4l0.4-0.3l0.5-0.4h0.3c-0.2,0.1-0.4,0.2-0.5,0.4
		c-0.1,0.2-0.3,0.4-0.5,0.5c0.4,0,0.8-0.2,1.1-0.5c0,0.3-0.4,0.7-1.1,1.2c0,0.1,0,0.2,0,0.3c0,0.1,0.1,0.1,0.2,0
		c0,0.2-0.8,0.8-2.5,1.8l-5.8,3.5c0.3,0.7,0.4,1.4,0.5,2.2c0,0.3,0.1,0.6,0.1,0.8c0,1.9-0.9,3.7-2.4,4.9c-1.4,1.2-3.2,1.9-5.1,2
		l-0.8-0.1c-0.8,0-1.5-0.4-2.1-1C398.6,41.4,398.4,39.8,399.3,38.7L399.3,38.7z M401,40.6c0.3,0.1,0.6,0.2,0.9,0.2
		c1.1-0.1,2-0.6,2.7-1.5c0.8-0.7,1-1.8,0.7-2.8c-0.9,0.6-1.8,1.3-2.5,2.1c-0.9,0.8-1.3,1.4-1.3,1.6c0,0.4,0,0.1-0.1,0.1l-0.2,0.1
		C401,40.5,401,40.5,401,40.6z M405,26.1v-0.5c0,0.1,0,0.1-0.1,0.2s-0.1,0.1-0.1,0.2L405,26.1z M407.4,31.2l-0.1-0.2
		c0,0.2,0.1,0.4,0.1,0.6l0.3,0.3L407.4,31.2z M407.8,40.4v-0.2l0.1-0.1l-0.1-0.1v-0.1c-0.1,0.1-0.1,0.2-0.1,0.3
		C407.7,40.2,407.8,40.3,407.8,40.4L407.8,40.4z M408.2,31.6l0.2-0.1c-0.2-0.4-0.5-0.8-0.7-1.2C407.9,30.7,408,31.2,408.2,31.6
		L408.2,31.6z M408.3,37.3l-0.4,0.2c0,0.1,0.1,0.2,0.2,0.2c0,0,0.1-0.1,0.1-0.2v-0.1C408.3,37.4,408.3,37.3,408.3,37.3L408.3,37.3z
		 M408.2,39.4l0.1-0.3c-0.2,0.2-0.3,0.5-0.3,0.8C408.2,39.7,408.2,39.5,408.2,39.4L408.2,39.4z M409,39.5l-0.3,0.7
		c0.1,0,0.1-0.1,0.2-0.2C409,39.8,409.1,39.6,409,39.5L409,39.5z M409.3,33.7l-0.2,0.1c0.3,0.9,0.5,1.9,0.5,2.9c0,0.1,0,0.2,0,0.4
		c0,0.2,0,0.3,0,0.3c-0.1,0.5-0.2,1-0.4,1.4l-0.1,0.3c0.4-0.8,0.6-1.7,0.6-2.6C409.8,35.6,409.7,34.6,409.3,33.7L409.3,33.7z"/>
	<path class="st0" d="M432.1,26.9l-0.2,0.2c0.1,0.1,0.3,0.1,0.4,0.1l-0.2,0.2v0.1l0,0.2c0,0-0.1,0.1-0.1,0.1v0.4l-0.2,0.2l0.1,0.4
		c-0.1,0.1-0.2,0.1-0.3,0.2c-0.1,0.1-0.2,0.2-0.3,0.2c-1.1,0.7-2.2,1.4-3.3,2c-0.1,0.1-0.2,0.1-0.3,0.2l-0.1,0.1
		c0,0.1-0.1,0.2-0.2,0.2c-0.1,0-0.3,0.1-0.4,0.2c-0.1,0.1-0.2,0.1-0.3,0.2c0,0-0.1-0.1-0.1-0.2l-0.1-0.2c-0.1,0-0.1,0.1-0.1,0.2
		c0,0,0,0.1,0,0.1s0,0.1,0,0.1c0,0-0.1,0-0.1,0.2s-0.1,0.2-0.2,0.2c-0.1,0-0.2-0.1-0.2-0.2c0,0,0,0,0-0.1l-0.2,0.2l0.1,0.1
		c0,0.1,0.1,0.1,0.1,0.2l-1.8,1.2c0.3,0.9,0.4,1.8,0.4,2.7c-0.1,1.1-0.3,2.2-0.7,3.3l-0.2,0.1c0,0.1,0.1,0.2,0.1,0.2l-0.1,0.1
		c0,0.1-0.1,0.2-0.1,0.3l-0.1,0.2c-0.1,0.1-0.2,0.2-0.2,0.3c-0.1,0.1-0.1,0.1-0.1,0.2l-0.2,0.4l-0.2,0.2c0,0.1-0.1,0.2-0.2,0.3
		l-0.2,0.2c-0.1,0.1-0.2,0.2-0.3,0.3c-0.1,0.1-0.2,0.2-0.2,0.2c-0.1,0-0.2,0.1-0.2,0.2c-0.1,0.2,0,0.1,0.1,0.1l-0.2,0.2L421,43
		c0,0.1,0,0.2-0.1,0.2l-0.4,0.2l-0.1,0.1c0,0-0.1,0.1-0.1,0.1l-0.5,0.3h-0.3c-0.1,0-0.2,0-0.2,0.1c0,0,0,0,0,0
		c0,0.1-0.1,0.2-0.2,0.2l-0.2,0.1l-0.4,0.1l-0.2,0.1l-0.2,0.1c-0.2,0.1-0.4,0.1-0.5,0.1c-0.3,0-0.6,0.1-0.8,0.1h-0.4l-0.3,0
		c0,0-0.1-0.1-0.2-0.1h-0.2l-0.2-0.1c-0.3,0-0.6-0.2-0.9-0.4c-0.1,0-0.2,0-0.2-0.1c-0.2-0.1-0.4-0.3-0.6-0.5
		c-0.1-0.2-0.1-0.2-0.2-0.2c0-0.1-0.1-0.2-0.1-0.2c0-0.1,0-0.2,0.1-0.3v-0.1c0,0,0-0.1-0.1-0.2s-0.1-0.1-0.1-0.2
		c0-2.7,2-5.5,5.9-8.4c-0.1-0.2-0.3-0.6-0.5-1.3l-0.7-1.8c-0.2-0.5-0.4-1.1-0.7-1.8c-0.2-0.7-0.4-1.4-0.6-2.1
		c-0.1-0.6-0.2-1.2-0.2-1.8v-1c0.1-0.8,0.4-1.6,0.7-2.4c1.6-2.8,4.4-4.6,8.4-5.4c0.2,0,0.4,0,0.4,0.1l0.4,0.2
		c1.2,0.5,2.2,1.4,2.7,2.5c0.1,0.3,0.1,0.5,0.1,0.8c0,0.7-0.1,1.3-0.4,1.9c0,0.2-0.1,0.5-0.3,0.7c-0.4,0.8-0.8,1.1-1.1,1.1h-0.2
		l-0.1,0.1l-0.1-0.1h-0.1c-0.1,0-0.2,0-0.3,0.1c-0.1,0-0.1,0.1-0.2,0.1h-0.7c-0.2,0-0.3,0-0.5-0.1c-0.1-0.1-0.1-0.1-0.1-0.2
		c0-0.1,0-0.2,0.1-0.3c0-0.1,0.1-0.1,0.1-0.2c0.5-1,0.9-2.1,1-3.2c0-0.2-0.1-0.4-0.4-0.4c-0.1,0-0.1,0-0.1-0.1
		c-0.1-0.1-0.2-0.1-0.3-0.1c-0.2,0-0.4,0-0.7,0.1c-1.1,0.3-2,0.9-2.7,1.8c-0.8,0.8-1.2,2-1.2,3.1c0,1.3,0.8,3.7,2.3,7.1
		c0.8-0.5,2-1.1,3.5-2s2.8-1.6,4-2.2c0.6-0.3,1.2-0.6,1.8-0.9v0.1c0,0.1-0.1,0.2-0.1,0.2l-0.2,0.1L432.1,26.9z M419.9,37.3
		c0-0.2,0-0.4-0.1-0.6l-2,1.8c-1.6,1.6-2.3,2.7-2.3,3.4c0,0.1,0.2,0.2,0.5,0.2h0.2c1,0,2-0.6,2.6-1.4
		C419.5,39.7,419.9,38.5,419.9,37.3z M417.2,44.2c0.1,0,0.2,0,0.3-0.1H417C417,44.1,417.1,44.2,417.2,44.2L417.2,44.2z M418.8,26.5
		l0.2,0.1c0.1-0.1,0.1-0.2,0.1-0.4c0,0,0-0.1-0.1-0.1V26l-0.1,0.2c-0.1,0-0.1,0.1-0.1,0.2L418.8,26.5z M419.3,42.8
		c-0.1,0-0.2,0.1-0.2,0.3l0.1,0.1h0.1c0.1,0,0.1,0,0.1-0.1c0,0,0,0,0,0C419.4,43,419.4,42.9,419.3,42.8L419.3,42.8z M420.6,28.8
		l-0.2-0.1l0.4,1.1l0.1-0.2c0-0.1,0-0.2-0.1-0.3C420.7,29.1,420.7,28.9,420.6,28.8L420.6,28.8z M421.1,28.7c0,0.1,0,0.1,0.1,0.2
		c0,0.2,0.1,0.4,0.3,0.4C421.3,29,421.2,28.8,421.1,28.7L421.1,28.7z M422.1,40.5c0,0,0.1,0,0.1-0.1s0.1-0.4,0.2-0.7
		c-0.1,0-0.3,0.1-0.3,0.2c0,0-0.1-0.1-0.1-0.2l-0.1,0.2c0,0.1,0.1,0.2,0.1,0.2l-0.1,0.2C421.9,40.4,422,40.4,422.1,40.5L422.1,40.5z
		 M423.9,19.1c-0.7,0.2-1.4,0.7-1.8,1.3l0.7-0.5c0.1,0,0.1-0.1,0.2-0.1l0.2-0.1l0.2-0.1l0.2-0.2C423.8,19.3,423.8,19.2,423.9,19.1
		L423.9,19.1z M422.8,40.4v-0.2c-0.2,0.1-0.2,0.3-0.2,0.5L422.8,40.4z M423.1,39.7l-0.2,0.2c0,0.1,0,0.2,0.1,0.2
		c0-0.1,0-0.1,0.1-0.2v-0.1C423.1,39.8,423.1,39.8,423.1,39.7L423.1,39.7z M423.1,39.1l-0.1,0.2c0,0,0,0.1,0.1,0.2l0.1-0.1v-0.2
		C423.2,39.2,423.2,39.1,423.1,39.1L423.1,39.1z"/>
</g>
</svg>
